# Blender v2.75 (sub 0) OBJ File: 'tower.blend'
# www.blender.org
mtllib tower.mtl
o Cube_Cube.001
v -0.119168 1.538762 0.164946
v 0.000970 1.859605 0.044808
v -0.119168 1.538762 -0.075330
v 0.121107 1.538762 0.164946
v 0.121107 1.538762 -0.075330
vn 0.000000 -1.000000 0.000000
vn -0.936500 0.350700 0.000000
vn 0.000000 0.350700 -0.936500
vn 0.936500 0.350700 0.000000
vn 0.000000 0.350700 0.936500
usemtl None
s off
f 1//1 3//1 5//1 4//1
f 2//2 3//2 1//2
f 2//3 5//3 3//3
f 2//4 4//4 5//4
f 2//5 1//5 4//5
o Plane_Plane.001
v -0.298496 -0.100045 0.327312
v 0.296789 -0.100045 0.327312
v -0.298496 -0.100045 -0.267973
v 0.296789 -0.100045 -0.267973
v -0.127534 0.890691 -0.097010
v -0.127534 0.890691 0.156349
v 0.125826 0.890691 0.156349
v 0.125826 0.890691 -0.097010
v -0.216477 1.544292 -0.185953
v -0.216477 1.544292 0.245292
v 0.214769 1.544292 0.245292
v 0.214769 1.544292 -0.185953
v -0.392085 -0.174123 0.029669
v -0.000854 -0.174123 0.420901
v 0.390378 -0.174123 0.029669
v -0.000854 -0.174123 -0.361562
v -0.179807 0.892713 0.029669
v -0.000854 0.892713 0.208622
v 0.178099 0.892713 0.029669
v -0.000854 0.892713 -0.149283
v 0.268511 0.324044 -0.239695
v 0.268511 0.324044 0.299034
v -0.270218 0.324044 0.299034
v -0.270218 0.324044 -0.239695
v -0.282656 1.599300 0.029669
v -0.000854 1.599300 0.311472
v 0.280948 1.599300 0.029669
v -0.000854 1.599300 -0.252133
v -0.206381 1.262674 0.235196
v -0.206381 1.262674 -0.175857
v 0.204673 1.262674 -0.175857
v 0.204673 1.262674 0.235196
v 0.286960 1.315017 0.029669
v -0.000854 1.315017 0.317483
v -0.000854 1.315017 -0.258144
v -0.000854 1.536994 0.029669
v -0.000854 0.251755 0.413648
v -0.000854 0.251755 -0.354309
v -0.384832 0.251755 0.029669
v 0.383125 0.251755 0.029669
v -0.288668 1.315017 0.029669
v -0.000854 -0.242370 0.029669
vn 0.226500 -0.947300 -0.226500
vn -0.944000 -0.012700 0.329600
vn 0.897700 0.296900 -0.325600
vn -0.897700 0.296900 0.325600
vn -0.325600 0.296900 -0.897700
vn 0.325600 0.296900 0.897700
vn -0.016900 0.999700 0.016900
vn -0.329600 -0.012700 -0.944000
vn 0.329600 -0.012700 0.944000
vn 0.944000 -0.012700 -0.329600
vn 0.944000 -0.012700 0.329600
vn 0.911300 -0.248000 0.328600
vn 0.911300 -0.248000 -0.328600
vn -0.329600 -0.012700 0.944000
vn -0.328600 -0.248000 0.911300
vn 0.328600 -0.248000 0.911300
vn 0.329600 -0.012700 -0.944000
vn 0.328600 -0.248000 -0.911300
vn -0.328600 -0.248000 -0.911300
vn 0.016900 0.999700 0.016900
vn 0.016900 0.999700 -0.016900
vn -0.016900 0.999700 -0.016900
vn -0.325600 0.296900 0.897700
vn -0.332800 0.050400 0.941700
vn 0.332800 0.050400 0.941700
vn 0.325600 0.296900 -0.897700
vn 0.332800 0.050400 -0.941700
vn -0.332800 0.050400 -0.941700
vn -0.897700 0.296900 -0.325600
vn -0.941700 0.050400 -0.332800
vn -0.941700 0.050400 0.332800
vn 0.897700 0.296900 0.325600
vn 0.941700 0.050400 0.332800
vn 0.941700 0.050400 -0.332800
vn -0.944000 -0.012700 -0.329600
vn -0.911300 -0.248000 -0.328600
vn -0.911300 -0.248000 0.328600
vn 0.226500 -0.947300 0.226500
vn -0.226500 -0.947300 0.226500
vn -0.226500 -0.947300 -0.226500
usemtl None
s off
f 47//6 21//6 9//6 20//6
f 46//7 34//7 15//7 30//7
f 45//8 26//8 13//8 24//8
f 44//9 28//9 11//9 22//9
f 43//10 29//10 10//10 25//10
f 42//11 27//11 12//11 23//11
f 41//12 32//12 17//12 33//12
f 40//13 35//13 14//13 33//13
f 39//14 37//14 16//14 31//14
f 38//15 36//15 17//15 32//15
f 37//16 38//16 32//16 16//16
f 12//17 24//17 38//17 37//17
f 24//18 13//18 36//18 38//18
f 34//19 39//19 31//19 15//19
f 11//20 23//20 39//20 34//20
f 23//21 12//21 37//21 39//21
f 36//22 40//22 33//22 17//22
f 13//23 25//23 40//23 36//23
f 25//24 10//24 35//24 40//24
f 30//25 41//25 33//25 14//25
f 15//26 31//26 41//26 30//26
f 31//27 16//27 32//27 41//27
f 28//28 42//28 23//28 11//28
f 6//29 19//29 42//29 28//29
f 19//30 7//30 27//30 42//30
f 26//31 43//31 25//31 13//31
f 9//32 21//32 43//32 26//32
f 21//33 8//33 29//33 43//33
f 29//34 44//34 22//34 10//34
f 8//35 18//35 44//35 29//35
f 18//36 6//36 28//36 44//36
f 27//37 45//37 24//37 12//37
f 7//38 20//38 45//38 27//38
f 20//39 9//39 26//39 45//39
f 35//40 46//40 30//40 14//40
f 10//41 22//41 46//41 35//41
f 22//42 11//42 34//42 46//42
f 19//43 47//43 20//43 7//43
f 6//44 18//44 47//44 19//44
f 18//45 8//45 21//45 47//45
